<svg width="156" height="166" viewBox="0 0 156 166" fill="none" xmlns="http://www.w3.org/2000/svg">
<path d="M95.7201 0C94.2201 0 93.0051 1.21745 93.0051 2.71856C93.0051 4.21967 94.2201 5.43712 95.7201 5.43712C109.087 5.43712 119.963 16.3264 119.963 29.7114V75.273C119.963 76.7743 121.178 77.9916 122.678 77.9916C124.177 77.9916 125.393 76.7743 125.393 75.273V29.7114C125.393 13.3287 112.081 0 95.7201 0Z" fill="#109BBB"/>
<path d="M126.327 0C124.827 0 123.612 1.21745 123.612 2.71856C123.612 4.21967 124.827 5.43712 126.327 5.43712C139.695 5.43712 150.57 16.3264 150.57 29.7114V75.273C150.57 76.7743 151.785 77.9916 153.285 77.9916C154.785 77.9916 156 76.7743 156 75.273V29.7114C156 13.3287 142.688 0 126.327 0Z" fill="#109BBB"/>
<path d="M99.8507 50.5834V115.421C99.8507 143.303 77.4525 166 49.9381 166C31.8997 166 15.2188 156.106 6.3693 140.181C5.14237 137.959 5.92578 135.129 8.11805 133.885C10.3111 132.616 13.1046 133.409 14.3315 135.631C21.5625 148.673 35.2153 156.741 49.9381 156.741C72.4146 156.741 90.714 138.197 90.714 115.421V50.5834C90.714 27.807 72.4146 9.26311 49.9381 9.26311C27.4617 9.26311 9.18887 27.7541 9.13666 50.5305V50.5834C9.13666 53.1494 7.10023 55.2128 4.56833 55.2128C2.06201 55.2128 0.0522101 53.2023 0 50.6628V50.5834C1.52867e-06 22.7015 22.3976 0.00439453 49.9381 0.00439453C77.4525 0.00439453 99.8507 22.7015 99.8507 50.5834Z" fill="#05334C"/>
</svg>
